<mxfile host="app.diagrams.net" modified="2021-03-30T13:14:31.309Z" agent="5.0 (Macintosh; Intel Mac OS X 11_2_3) AppleWebKit/537.36 (KHTML, like Gecko) Chrome/89.0.4389.90 Safari/537.36" etag="jfcok3iym3lLVH_Fy43_" version="14.5.3" type="github">
  <diagram id="prtHgNgQTEPvFCAcTncT" name="Page-1">
    <mxGraphModel dx="316" dy="309" grid="1" gridSize="10" guides="1" tooltips="1" connect="1" arrows="1" fold="1" page="1" pageScale="1" pageWidth="827" pageHeight="1169" math="0" shadow="0">
      <root>
        <mxCell id="0" />
        <mxCell id="1" parent="0" />
        <mxCell id="K6f-uTuAnh2yIxuSVp7x-2" value="Foundation" style="rounded=0;whiteSpace=wrap;html=1;" vertex="1" parent="1">
          <mxGeometry x="120" y="950" width="650" height="60" as="geometry" />
        </mxCell>
        <mxCell id="K6f-uTuAnh2yIxuSVp7x-6" value="OC" style="swimlane;startSize=23;" vertex="1" parent="1">
          <mxGeometry x="120" y="850" width="140" height="80" as="geometry" />
        </mxCell>
        <mxCell id="K6f-uTuAnh2yIxuSVp7x-7" value="Text" style="text;html=1;align=center;verticalAlign=middle;resizable=0;points=[];autosize=1;" vertex="1" parent="K6f-uTuAnh2yIxuSVp7x-6">
          <mxGeometry y="30" width="40" height="20" as="geometry" />
        </mxCell>
        <mxCell id="K6f-uTuAnh2yIxuSVp7x-8" value="Swift" style="swimlane;startSize=23;" vertex="1" parent="1">
          <mxGeometry x="270" y="850" width="140" height="80" as="geometry" />
        </mxCell>
        <mxCell id="K6f-uTuAnh2yIxuSVp7x-9" value="Text" style="text;html=1;align=center;verticalAlign=middle;resizable=0;points=[];autosize=1;" vertex="1" parent="K6f-uTuAnh2yIxuSVp7x-8">
          <mxGeometry y="30" width="40" height="20" as="geometry" />
        </mxCell>
        <mxCell id="K6f-uTuAnh2yIxuSVp7x-10" value="Flutter" style="swimlane;startSize=23;" vertex="1" parent="1">
          <mxGeometry x="630" y="870" width="140" height="60" as="geometry" />
        </mxCell>
        <mxCell id="K6f-uTuAnh2yIxuSVp7x-12" value="o              " style="swimlane;startSize=23;" vertex="1" parent="1">
          <mxGeometry x="430" y="850" width="140" height="80" as="geometry" />
        </mxCell>
        <mxCell id="K6f-uTuAnh2yIxuSVp7x-13" value="Text" style="text;html=1;align=center;verticalAlign=middle;resizable=0;points=[];autosize=1;" vertex="1" parent="K6f-uTuAnh2yIxuSVp7x-12">
          <mxGeometry y="30" width="40" height="20" as="geometry" />
        </mxCell>
        <mxCell id="K6f-uTuAnh2yIxuSVp7x-14" value="一手App" style="rounded=0;whiteSpace=wrap;html=1;" vertex="1" parent="1">
          <mxGeometry x="90" y="170" width="670" height="20" as="geometry" />
        </mxCell>
        <mxCell id="K6f-uTuAnh2yIxuSVp7x-15" value="用户模块" style="swimlane;startSize=20;" vertex="1" parent="1">
          <mxGeometry x="90" y="200" width="60" height="130" as="geometry" />
        </mxCell>
        <mxCell id="K6f-uTuAnh2yIxuSVp7x-28" value="&lt;table border=&quot;1&quot; width=&quot;100%&quot; style=&quot;width: 100% ; height: 100% ; border-collapse: collapse&quot;&gt;&lt;tbody&gt;&lt;tr&gt;&lt;td&gt;用户中心&lt;/td&gt;&lt;/tr&gt;&lt;tr&gt;&lt;td&gt;店主认证&lt;br&gt;&lt;/td&gt;&lt;/tr&gt;&lt;tr&gt;&lt;td&gt;用户信息&lt;/td&gt;&lt;/tr&gt;&lt;tr&gt;&lt;td&gt;收藏&lt;/td&gt;&lt;/tr&gt;&lt;tr&gt;&lt;td&gt;....&lt;/td&gt;&lt;/tr&gt;&lt;/tbody&gt;&lt;/table&gt;" style="text;html=1;strokeColor=none;fillColor=none;overflow=fill;align=center;" vertex="1" parent="K6f-uTuAnh2yIxuSVp7x-15">
          <mxGeometry y="20" width="60" height="110" as="geometry" />
        </mxCell>
        <mxCell id="K6f-uTuAnh2yIxuSVp7x-32" value="商品模块" style="swimlane;startSize=20;" vertex="1" parent="1">
          <mxGeometry x="160" y="200" width="60" height="130" as="geometry" />
        </mxCell>
        <mxCell id="K6f-uTuAnh2yIxuSVp7x-33" value="&lt;table border=&quot;1&quot; width=&quot;100%&quot; style=&quot;width: 100% ; height: 100% ; border-collapse: collapse&quot;&gt;&lt;tbody&gt;&lt;tr&gt;&lt;td&gt;分类&lt;/td&gt;&lt;/tr&gt;&lt;tr&gt;&lt;td&gt;商品详情&lt;/td&gt;&lt;/tr&gt;&lt;tr&gt;&lt;td&gt;搜索&lt;/td&gt;&lt;/tr&gt;&lt;tr&gt;&lt;td&gt;推荐&lt;/td&gt;&lt;/tr&gt;&lt;tr&gt;&lt;td&gt;....&lt;/td&gt;&lt;/tr&gt;&lt;/tbody&gt;&lt;/table&gt;" style="text;html=1;strokeColor=none;fillColor=none;overflow=fill;align=center;" vertex="1" parent="K6f-uTuAnh2yIxuSVp7x-32">
          <mxGeometry y="20" width="60" height="110" as="geometry" />
        </mxCell>
        <mxCell id="K6f-uTuAnh2yIxuSVp7x-35" value="售后模块" style="swimlane;startSize=20;" vertex="1" parent="1">
          <mxGeometry x="230" y="200" width="60" height="130" as="geometry" />
        </mxCell>
        <mxCell id="K6f-uTuAnh2yIxuSVp7x-36" value="&lt;table border=&quot;1&quot; width=&quot;100%&quot; style=&quot;width: 100% ; height: 100% ; border-collapse: collapse&quot;&gt;&lt;tbody&gt;&lt;tr&gt;&lt;td&gt;售后详情&lt;/td&gt;&lt;/tr&gt;&lt;tr&gt;&lt;td&gt;自助售后&lt;/td&gt;&lt;/tr&gt;&lt;tr&gt;&lt;td&gt;售后单&lt;/td&gt;&lt;/tr&gt;&lt;tr&gt;&lt;td&gt;无理由&lt;/td&gt;&lt;/tr&gt;&lt;tr&gt;&lt;td&gt;....&lt;/td&gt;&lt;/tr&gt;&lt;/tbody&gt;&lt;/table&gt;" style="text;html=1;strokeColor=none;fillColor=none;overflow=fill;align=center;" vertex="1" parent="K6f-uTuAnh2yIxuSVp7x-35">
          <mxGeometry y="20" width="60" height="110" as="geometry" />
        </mxCell>
        <mxCell id="K6f-uTuAnh2yIxuSVp7x-39" value="档口模块" style="swimlane;startSize=20;" vertex="1" parent="1">
          <mxGeometry x="300" y="200" width="60" height="130" as="geometry">
            <mxRectangle x="300" y="200" width="80" height="20" as="alternateBounds" />
          </mxGeometry>
        </mxCell>
        <mxCell id="K6f-uTuAnh2yIxuSVp7x-40" value="&lt;table border=&quot;1&quot; width=&quot;100%&quot; style=&quot;width: 100% ; height: 100% ; border-collapse: collapse&quot;&gt;&lt;tbody&gt;&lt;tr&gt;&lt;td&gt;市场&lt;/td&gt;&lt;/tr&gt;&lt;tr&gt;&lt;td&gt;档口详情&lt;/td&gt;&lt;/tr&gt;&lt;tr&gt;&lt;td&gt;档口问答&lt;/td&gt;&lt;/tr&gt;&lt;tr&gt;&lt;td&gt;收藏&lt;/td&gt;&lt;/tr&gt;&lt;tr&gt;&lt;td&gt;....&lt;/td&gt;&lt;/tr&gt;&lt;/tbody&gt;&lt;/table&gt;" style="text;html=1;strokeColor=none;fillColor=none;overflow=fill;align=center;" vertex="1" parent="K6f-uTuAnh2yIxuSVp7x-39">
          <mxGeometry y="20" width="60" height="110" as="geometry" />
        </mxCell>
        <mxCell id="K6f-uTuAnh2yIxuSVp7x-41" value="账号模块" style="swimlane;startSize=20;" vertex="1" parent="1">
          <mxGeometry x="370" y="200" width="60" height="130" as="geometry" />
        </mxCell>
        <mxCell id="K6f-uTuAnh2yIxuSVp7x-42" value="&lt;table border=&quot;1&quot; width=&quot;100%&quot; style=&quot;width: 100% ; height: 100% ; border-collapse: collapse&quot;&gt;&lt;tbody&gt;&lt;tr&gt;&lt;td&gt;一键登录&lt;/td&gt;&lt;/tr&gt;&lt;tr&gt;&lt;td&gt;忘记密码&lt;/td&gt;&lt;/tr&gt;&lt;tr&gt;&lt;td&gt;手机登录&lt;/td&gt;&lt;/tr&gt;&lt;tr&gt;&lt;td&gt;密码登录&lt;/td&gt;&lt;/tr&gt;&lt;tr&gt;&lt;td&gt;....&lt;/td&gt;&lt;/tr&gt;&lt;/tbody&gt;&lt;/table&gt;" style="text;html=1;strokeColor=none;fillColor=none;overflow=fill;align=center;" vertex="1" parent="K6f-uTuAnh2yIxuSVp7x-41">
          <mxGeometry y="20" width="60" height="110" as="geometry" />
        </mxCell>
      </root>
    </mxGraphModel>
  </diagram>
</mxfile>
